<?xml version="1.0" encoding="UTF-8"?><svg xmlns="http://www.w3.org/2000/svg" viewBox="0 0 259.2 259.2"><defs><linearGradient id="gradient" x1="-24.09" y1="1246.96" x2="-24.09" y2="738.73" gradientTransform="translate(141.89 -376.75) scale(.51)" gradientUnits="userSpaceOnUse"><stop offset="0" stop-color="#7367f0"/><stop offset="1" stop-color="#ce9ffc"/></linearGradient></defs><path style="fill:url(#gradient)" d="M129.6,0c-12.97,0-25.87,1.94-38.27,5.78-7.58,2.34-14.93,5.4-21.94,9.12l16.36,16.38,98.32,98.32-98.32,98.32-16.36,16.39c7.01,3.72,14.36,6.77,21.94,9.11,12.39,3.84,25.29,5.79,38.27,5.78,71.43,0,129.6-58.17,129.6-129.6S201.03,0,129.6,0ZM129.6,237.23c-6.77,0-13.53-.64-20.18-1.91l105.72-105.72L109.42,23.87c6.65-1.27,13.41-1.91,20.18-1.91,59.35,0,107.63,48.28,107.63,107.63s-48.28,107.63-107.63,107.63h0ZM59.07,48.37l-15.55-15.55L21.18,10.48l-15.53,15.54,22.73,22.72c-37.84,47.26-37.84,114.45,0,161.71l-22.73,22.76,15.53,15.53,22.34-22.36,15.55-15.55,81.24-81.23L59.06,48.37h.01ZM44.02,194.81c-29.4-38.51-29.4-91.93,0-130.44l65.22,65.23-65.22,65.21Z"/></svg>